<svg xmlns="http://www.w3.org/2000/svg" viewBox="0 0 512 512" width="512" height="512">
  <defs>
    <linearGradient id="bgGrad" x1="0%" y1="0%" x2="100%" y2="100%">
      <stop offset="0%" stop-color="#1e293b"/>
      <stop offset="100%" stop-color="#0f172a"/>
    </linearGradient>
    <linearGradient id="flagBlack" x1="0%" y1="0%" x2="0%" y2="100%">
      <stop offset="0%" stop-color="#1f2937"/>
      <stop offset="100%" stop-color="#111827"/>
    </linearGradient>
    <linearGradient id="flagRed" x1="0%" y1="0%" x2="0%" y2="100%">
      <stop offset="0%" stop-color="#ef4444"/>
      <stop offset="100%" stop-color="#dc2626"/>
    </linearGradient>
    <linearGradient id="flagGold" x1="0%" y1="0%" x2="0%" y2="100%">
      <stop offset="0%" stop-color="#fbbf24"/>
      <stop offset="100%" stop-color="#f59e0b"/>
    </linearGradient>
    <linearGradient id="blueAccent" x1="0%" y1="0%" x2="100%" y2="100%">
      <stop offset="0%" stop-color="#3b82f6"/>
      <stop offset="100%" stop-color="#1d4ed8"/>
    </linearGradient>
  </defs>

  <!-- Background rounded box -->
  <rect width="512" height="512" rx="108" fill="url(#bgGrad)"/>
  
  <!-- Subtle border highlight -->
  <rect x="8" y="8" width="496" height="496" rx="100" fill="none" stroke="#3b82f6" stroke-width="4" stroke-opacity="0.4"/>

  <!-- German Tri-color Ribbon Banner at Top -->
  <g transform="translate(106, 90)">
    <rect x="0" y="0" width="300" height="12" rx="4" fill="url(#flagBlack)"/>
    <rect x="0" y="14" width="300" height="12" rx="4" fill="url(#flagRed)"/>
    <rect x="0" y="28" width="300" height="12" rx="4" fill="url(#flagGold)"/>
  </g>

  <!-- Open Book Symbol (Deutsch Mussawi Akademie) -->
  <g transform="translate(256, 290)">
    <!-- Book Left Page -->
    <path d="M-120,-80 C-70,-95 -20,-85 0,-60 L0,70 C-20,45 -70,35 -120,50 Z" fill="#ffffff" opacity="0.95"/>
    <!-- Book Right Page -->
    <path d="M120,-80 C70,-95 20,-85 0,-60 L0,70 C20,45 70,35 120,50 Z" fill="#ffffff" opacity="0.95"/>
    <!-- Book Center Spine -->
    <path d="M-4,-60 L4,-60 L4,70 L-4,70 Z" fill="#94a3b8"/>
    <!-- Book lines left -->
    <line x1="-95" y1="-50" x2="-25" y2="-40" stroke="#cbd5e1" stroke-width="6" stroke-linecap="round"/>
    <line x1="-95" y1="-25" x2="-25" y2="-15" stroke="#cbd5e1" stroke-width="6" stroke-linecap="round"/>
    <line x1="-95" y1="0" x2="-25" y2="10" stroke="#cbd5e1" stroke-width="6" stroke-linecap="round"/>
    <line x1="-95" y1="25" x2="-40" y2="32" stroke="#cbd5e1" stroke-width="6" stroke-linecap="round"/>
    <!-- Book lines right -->
    <line x1="25" y1="-40" x2="95" y2="-50" stroke="#cbd5e1" stroke-width="6" stroke-linecap="round"/>
    <line x1="25" y1="-15" x2="95" y2="-25" stroke="#cbd5e1" stroke-width="6" stroke-linecap="round"/>
    <line x1="25" y1="10" x2="95" y2="0" stroke="#cbd5e1" stroke-width="6" stroke-linecap="round"/>
    <line x1="40" y1="32" x2="95" y2="25" stroke="#cbd5e1" stroke-width="6" stroke-linecap="round"/>
    <!-- Glowing Bookmark / Pen -->
    <path d="M0,-60 L0,85 L10,75 L20,85 L20,-60 Z" fill="url(#flagGold)"/>
  </g>

  <!-- Level Badge Pill: A1 - C2 -->
  <g transform="translate(156, 400)">
    <rect width="200" height="42" rx="21" fill="url(#blueAccent)"/>
    <text x="100" y="27" fill="#ffffff" font-family="system-ui, -apple-system, sans-serif" font-size="20" font-weight="900" text-anchor="middle" letter-spacing="2">A1 — C2</text>
  </g>
</svg>